<svg width="13" height="13" viewBox="0 0 13 13" fill="none" xmlns="http://www.w3.org/2000/svg">
<path d="M12.5199 4.73401C12.8067 5.82606 12.8067 6.91799 12.5198 8.01004C12.2328 9.10219 11.6815 10.0563 10.8654 10.873C10.0493 11.6895 9.09569 12.2415 8.00443 12.5286C6.91316 12.8158 5.82199 12.8158 4.73064 12.5287C3.63923 12.2415 2.68558 11.6896 1.86962 10.8731C1.05361 10.0565 0.502246 9.10225 0.215147 8.01016C-0.0717269 6.91813 -0.0717272 5.8262 0.215167 4.73407C0.502184 3.64198 1.05365 2.68771 1.86966 1.87114C2.68567 1.05456 3.63935 0.502626 4.73064 0.215449C5.82183 -0.0717482 6.91312 -0.071583 8.00437 0.215511C9.09563 0.502748 10.0492 1.05468 10.8652 1.87122C11.6813 2.68781 12.2328 3.64214 12.5199 4.73401ZM10.2094 10.2166C11.1776 9.24771 11.7028 8.08143 11.7848 6.71793L11.6091 6.6887C11.5388 6.67689 11.3866 6.67113 11.1523 6.67102C10.9181 6.67104 10.6789 6.68759 10.4349 6.7208C10.1908 6.7541 9.88249 6.82237 9.50952 6.92599C9.13664 7.02953 8.7647 7.16522 8.39376 7.33327C8.7726 8.61093 9.03814 9.8377 9.19034 11.0137C9.57301 10.7792 9.91264 10.5135 10.2094 10.2166ZM5.74105 11.7698C6.58817 11.8674 7.40807 11.7737 8.20067 11.4884C8.04059 10.3593 7.77891 9.14419 7.41587 7.84313C5.9166 8.71831 4.57743 9.74582 3.39837 10.9258C4.11289 11.3907 4.89382 11.6721 5.74105 11.7698ZM1.39809 8.57265C1.66549 9.18411 2.04137 9.73215 2.52556 10.2167C2.58025 10.2714 2.62326 10.3104 2.65442 10.3339C4.06787 8.91946 5.56322 7.78631 7.14065 6.93465C7.02356 6.56738 6.91033 6.24699 6.80095 5.97345C6.77734 5.98147 6.74341 5.99793 6.69847 6.02333C6.65344 6.04884 6.62136 6.0674 6.60165 6.0792L6.30889 6.21981C6.10577 6.31362 5.81775 6.41427 5.44505 6.52169C5.07208 6.62896 4.6593 6.72575 4.20633 6.81168C3.75334 6.89758 3.23211 6.93277 2.64248 6.917C2.05294 6.9014 1.48691 6.81749 0.944218 6.66513C0.979336 7.32541 1.13076 7.96135 1.39809 8.57265ZM2.52556 2.52745C1.61191 3.44174 1.08877 4.55138 0.955952 5.85632L0.979357 5.7039C1.41671 5.8681 1.90671 5.95606 2.44942 5.96766C2.99209 5.9793 3.47143 5.94719 3.88729 5.87106C4.30299 5.79476 4.73048 5.68732 5.16995 5.54876C5.60907 5.40997 5.90189 5.30859 6.04827 5.24389C6.19469 5.17939 6.31094 5.12768 6.39687 5.08866L6.41441 5.08289L6.4262 5.07109C5.8053 3.68421 5.10648 2.43765 4.32945 1.33201C3.64218 1.61323 3.04105 2.01173 2.52556 2.52745ZM7.5243 1.05924C6.78826 0.900977 6.05701 0.892192 5.33103 1.03282C6.0688 2.09174 6.73474 3.25798 7.32803 4.53171C8.22617 3.87546 8.96788 3.01972 9.55363 1.96488C8.9367 1.5195 8.26012 1.21757 7.5243 1.05924ZM10.2035 2.63884C10.1722 2.68566 10.1322 2.74342 10.0834 2.81172C10.0346 2.88001 9.975 2.96317 9.90471 3.06085C9.83453 3.15842 9.75334 3.265 9.66169 3.3802C9.56991 3.49548 9.47034 3.61655 9.36288 3.74363C9.25559 3.87061 9.13836 4.0034 9.01159 4.14209C8.88451 4.28091 8.75284 4.41859 8.61616 4.55536C8.47963 4.69199 8.33206 4.83174 8.17407 4.97432C8.0161 5.11701 7.85688 5.24867 7.69686 5.3698C7.70461 5.40117 7.72223 5.44803 7.74959 5.51056C7.77692 5.573 7.79833 5.62005 7.81419 5.65107C7.90389 5.88949 8.00344 6.16108 8.11261 6.46587C8.49142 6.30574 8.87407 6.17474 9.26078 6.07304C9.64727 5.97158 9.96916 5.90326 10.2269 5.868C10.4847 5.83292 10.7414 5.81243 10.9971 5.80656C11.2529 5.80063 11.4245 5.80266 11.5125 5.81231C11.6005 5.82212 11.6854 5.83285 11.7673 5.84455L11.7791 5.84458C11.6541 4.5787 11.1448 3.48659 10.2504 2.56849L10.2035 2.63884Z" fill="white"/>
</svg>
